<svg xmlns="http://www.w3.org/2000/svg" width="24" height="24" viewBox="0 0 24 24"><path d="M12,0A12,12,0,1,0,24,12,12.013,12.013,0,0,0,12,0Zm5.76,15.641a.482.482,0,0,1-.141.34l-2.88,2.88a.48.48,0,0,1-.819-.34V14.245a.481.481,0,0,1,.3-.446l1.8-.718a.481.481,0,0,0,.3-.446v-.959a.479.479,0,0,0-.612-.461l-2.4.686a.479.479,0,0,0-.348.461V14.88a.48.48,0,0,1-.48.48h-.96a.48.48,0,0,1-.48-.48V12.362a.479.479,0,0,0-.348-.461l-2.4-.686a.479.479,0,0,0-.612.461v.959a.481.481,0,0,0,.3.446l1.8.718a.481.481,0,0,1,.3.446v4.276a.48.48,0,0,1-.819.34l-2.88-2.88a.482.482,0,0,1-.141-.34v-5.37a5.886,5.886,0,0,1,5.652-5.95A5.76,5.76,0,0,1,17.76,10.08Z" fill="#cc9536"/></svg>