<svg xmlns="http://www.w3.org/2000/svg" width="50" height="50" viewBox="0 0 50 50"><path d="M25,50A25,25,0,1,1,50,25,25.028,25.028,0,0,1,25,50ZM25,2A23,23,0,1,0,48,25,23.026,23.026,0,0,0,25,2Z" fill="#c59849"/><path d="M38.229,10A20,20,0,0,1,37,41" fill="none" stroke="#c59849" stroke-miterlimit="10" opacity="0.5"/><path d="M13,41a20,20,0,0,1-1.227-31" fill="none" stroke="#c59849" stroke-miterlimit="10" opacity="0.5"/><polygon points="25 3.162 25.686 4.552 27.219 4.774 26.109 5.856 26.371 7.383 25 6.662 23.629 7.383 23.891 5.856 22.781 4.774 24.314 4.552 25 3.162" fill="#c59849"/><polygon points="31.034 4.012 31.309 5.537 32.721 6.175 31.356 6.908 31.186 8.447 30.067 7.376 28.55 7.69 29.223 6.295 28.456 4.949 29.991 5.158 31.034 4.012" fill="#c59849"/><polygon points="36.598 6.497 36.441 8.038 37.621 9.041 36.107 9.368 35.518 10.801 34.739 9.462 33.194 9.344 34.227 8.19 33.862 6.684 35.279 7.31 36.598 6.497" fill="#c59849"/><polygon points="18.966 4.012 18.691 5.537 17.279 6.175 18.644 6.908 18.814 8.447 19.933 7.376 21.45 7.69 20.777 6.295 21.544 4.949 20.009 5.158 18.966 4.012" fill="#c59849"/><polygon points="13.402 6.497 13.559 8.038 12.379 9.041 13.893 9.368 14.482 10.801 15.261 9.462 16.806 9.344 15.773 8.19 16.138 6.684 14.721 7.31 13.402 6.497" fill="#c59849"/><path d="M13.655,42.723,15.109,40.1l2.373,1.315-.313.567-1.61-.892-.273.492,1.15.637-.246.441-1.149-.638-.29.524,1.61.892-.332.6Z" fill="#c59849"/><path d="M18.2,44.976A3.035,3.035,0,0,1,16.8,44l.5-.386a2.631,2.631,0,0,0,1.1.8c.426.144.646.058.7-.108.162-.473-1.957-.88-1.6-1.916.174-.51.885-.728,1.728-.442a2.37,2.37,0,0,1,1.25.944l-.529.314a2.058,2.058,0,0,0-.934-.7c-.379-.129-.644-.077-.7.094-.157.459,1.965.911,1.624,1.916C19.749,45.072,19,45.251,18.2,44.976Z" fill="#c59849"/><path d="M22.65,43.532l-.347,2.3-.868-.131.346-2.3-1.095-.165.1-.664,3.057.461-.1.664Z" fill="#c59849"/><path d="M25.513,46.039l-.022-.251c-.095-1.072,1.8-1.517,1.759-2.036-.019-.211-.221-.352-.6-.318a1.635,1.635,0,0,0-.942.445l-.374-.445a2.057,2.057,0,0,1,1.313-.606c.82-.072,1.328.295,1.373.807.068.775-1.136,1.062-1.64,1.709l1.781-.158.055.615Z" fill="#c59849"/><path d="M30.53,45.373a1.387,1.387,0,0,1-1.8-.949l-.112-.409a1.5,1.5,0,0,1,2.884-.78l.11.41A1.384,1.384,0,0,1,30.53,45.373Zm.2-1.953a.706.706,0,1,0-1.361.367l.119.443a.706.706,0,1,0,1.362-.367Z" fill="#c59849"/><path d="M32.688,44.6l-.107-.229c-.46-.973,1.171-2.047.948-2.519-.091-.192-.329-.253-.675-.09a1.627,1.627,0,0,0-.731.744l-.5-.29a2.058,2.058,0,0,1,1.023-1.021c.746-.351,1.348-.183,1.567.282.333.7-.7,1.39-.947,2.171l1.617-.763.264.557Z" fill="#c59849"/><path d="M35.926,42.942l-1.408-2.218a.36.36,0,0,0,.14-.527L35,39.98l1.6,2.531Z" fill="#c59849"/><path d="M24.775,9A12.262,12.262,0,0,0,13,21.4V32.586a1,1,0,0,0,.293.707l6,6A1,1,0,0,0,21,38.586V29.677a1,1,0,0,0-.629-.928l-3.742-1.5A1,1,0,0,1,16,26.323v-2a1,1,0,0,1,1.275-.962l5,1.429a1,1,0,0,1,.725.961V31a1,1,0,0,0,1,1h2a1,1,0,0,0,1-1V25.754a1,1,0,0,1,.725-.961l5-1.429A1,1,0,0,1,34,24.326v2a1,1,0,0,1-.629.928l-3.742,1.5a1,1,0,0,0-.629.928v8.909a1,1,0,0,0,1.707.707l6-6A1,1,0,0,0,37,32.586V21A12,12,0,0,0,24.775,9Z" fill="#c59849"/></svg>